HIERARCHY
ROOT Hips
{
	OFFSET 0.000000 0.000000 0.000000
	CHANNELS 6 Xposition Yposition Zposition Zrotation Yrotation Xrotation 
	JOINT LHipJoint
	{
		OFFSET 0.000000 0.000000 0.000000
		CHANNELS 3 Zrotation Yrotation Xrotation
		JOINT LeftUpLeg
		{
			OFFSET 1.363060 -1.794630 0.839290
			CHANNELS 3 Zrotation Yrotation Xrotation
			JOINT LeftLeg
			{
				OFFSET 2.448110 -6.726130 0.000000
				CHANNELS 3 Zrotation Yrotation Xrotation
				JOINT LeftFoot
				{
					OFFSET 2.562200 -7.039590 0.000000
					CHANNELS 3 Zrotation Yrotation Xrotation
					JOINT LeftToeBase
					{
						OFFSET 0.157640 -0.433110 2.322550
						CHANNELS 3 Zrotation Yrotation Xrotation
						End Site
						{
							OFFSET 0.000000 0.000000 0.000000
						}
					}
				}
			}
		}
	}
	JOINT RHipJoint
	{
		OFFSET 0.000000 0.000000 0.000000
		CHANNELS 3 Zrotation Yrotation Xrotation
		JOINT RightUpLeg
		{
			OFFSET -1.305520 -1.794630 0.839290
			CHANNELS 3 Zrotation Yrotation Xrotation
			JOINT RightLeg
			{
				OFFSET -2.542530 -6.985550 0.000000
				CHANNELS 3 Zrotation Yrotation Xrotation
				JOINT RightFoot
				{
					OFFSET -2.568260 -7.056230 0.000000
					CHANNELS 3 Zrotation Yrotation Xrotation
					JOINT RightToeBase
					{
						OFFSET -0.164730 -0.452590 2.363150
						CHANNELS 3 Zrotation Yrotation Xrotation
						End Site
						{
							OFFSET 0.000000 0.000000 0.000000
						}
					}
				}
			}
		}
	}
	JOINT LowerBack
	{
		OFFSET 0.000000 0.000000 0.000000
		CHANNELS 3 Zrotation Yrotation Xrotation
		JOINT Spine
		{
			OFFSET 0.028270 2.035590 -0.193380
			CHANNELS 3 Zrotation Yrotation Xrotation
			JOINT Spine1
			{
				OFFSET 0.056720 2.048850 -0.042750
				CHANNELS 3 Zrotation Yrotation Xrotation
				JOINT Neck
				{
					OFFSET 0.000000 0.000000 0.000000
					CHANNELS 3 Zrotation Yrotation Xrotation
					JOINT Neck1
					{
						OFFSET -0.054170 1.746240 0.172020
						CHANNELS 3 Zrotation Yrotation Xrotation
						JOINT Head
						{
							OFFSET 0.104070 1.761360 -0.123970
							CHANNELS 3 Zrotation Yrotation Xrotation
							End Site
							{
								OFFSET 0.000000 0.000000 0.000000
							}
						}
					}
				}
				JOINT LeftShoulder
				{
					OFFSET 0.000000 0.000000 0.000000
					CHANNELS 3 Zrotation Yrotation Xrotation
					JOINT LeftArm
					{
						OFFSET 3.362410 1.200890 -0.311210
						CHANNELS 3 Zrotation Yrotation Xrotation
						JOINT LeftForeArm
						{
							OFFSET 4.983000 -0.000000 -0.000000
							CHANNELS 3 Zrotation Yrotation Xrotation
							JOINT LeftHand
							{
								OFFSET 3.483560 -0.000000 -0.000000
								CHANNELS 3 Zrotation Yrotation Xrotation
								JOINT LeftFingerBase
								{
									OFFSET 0.000000 0.000000 0.000000
									CHANNELS 3 Zrotation Yrotation Xrotation
									JOINT LeftHandIndex1
									{
										OFFSET 0.715260 -0.000000 -0.000000
										CHANNELS 3 Zrotation Yrotation Xrotation
										End Site
										{
											OFFSET 0.000000 0.000000 0.000000
										}
									}
								}
								JOINT LThumb
								{
									OFFSET 0.000000 0.000000 0.000000
									CHANNELS 3 Zrotation Yrotation Xrotation
									End Site
									{
										OFFSET 0.000000 0.000000 0.000000
									}
								}
							}
						}
					}
				}
				JOINT RightShoulder
				{
					OFFSET 0.000000 0.000000 0.000000
					CHANNELS 3 Zrotation Yrotation Xrotation
					JOINT RightArm
					{
						OFFSET -3.136600 1.374050 -0.404650
						CHANNELS 3 Zrotation Yrotation Xrotation
						JOINT RightForeArm
						{
							OFFSET -5.241900 -0.000000 -0.000000
							CHANNELS 3 Zrotation Yrotation Xrotation
							JOINT RightHand
							{
								OFFSET -3.444170 -0.000000 -0.000000
								CHANNELS 3 Zrotation Yrotation Xrotation
								JOINT RightFingerBase
								{
									OFFSET 0.000000 0.000000 0.000000
									CHANNELS 3 Zrotation Yrotation Xrotation
									JOINT RightHandIndex1
									{
										OFFSET -0.622530 -0.000000 -0.000000
										CHANNELS 3 Zrotation Yrotation Xrotation
										End Site
										{
											OFFSET 0.000000 0.000000 0.000000
										}
									}
								}
								JOINT RThumb
								{
									OFFSET 0.000000 0.000000 0.000000
									CHANNELS 3 Zrotation Yrotation Xrotation
									End Site
									{
										OFFSET 0.000000 0.000000 0.000000
									}
								}
							}
						}
					}
				}
			}
		}
	}
}
MOTION
Frames: 5
Frame Time: 0.008333
-0.108003 16.721763 -2.097258 -1.537483 -1.235755 6.861603 6.246921 -0.119976 -2.804857 -16.729451 -5.630628 -22.875223 3.358858 16.101538 44.118538 0.085411 4.187709 -14.028724 0.519900 -4.621300 -12.831500 -8.371400 -0.569875 -3.151872 19.881074 2.379774 -23.068775 -3.480069 -15.923009 44.965398 -0.951502 -1.746063 -15.175896 -0.452100 4.313600 -11.960800 1.974738 -1.080603 7.573222 0.970613 -1.207806 -4.984944 -2.864382 -0.664065 -6.644250 3.292881 0.258597 -13.126412 5.382295 -1.158089 14.626351 -2.780200 1.084400 15.307200 9.921017 -12.569515 0.642605 -36.362816 -40.748528 5.935611 76.884450 -48.412703 -45.090213 -2.779594 -0.254249 7.179494 -41.874435 19.416351 -16.362300 -7.125000 0.000000 0.000000 -55.988600 42.960500 4.452600 -7.979127 14.092300 -1.907705 37.676106 49.181722 8.146686 -59.138811 45.393852 -26.610322 2.765196 0.437372 -1.928003 40.039258 -28.421829 -20.932100 7.125000 0.000000 0.000000 63.740400 -49.694200 -11.686200 
-0.106321 16.722548 -2.098716 -1.542408 -1.245571 6.865381 6.244949 -0.121265 -2.803165 -16.731051 -5.678309 -22.856836 3.352151 16.097803 44.099521 0.070800 4.245036 -14.044475 0.521000 -4.626100 -12.845200 -8.372223 -0.568254 -3.150181 19.882917 2.430060 -23.048517 -3.468843 -15.916090 44.933037 -0.939080 -1.789693 -15.176785 -0.452600 4.315800 -11.966800 1.969517 -1.080104 7.568404 0.973329 -1.208633 -4.987195 -2.854113 -0.663286 -6.658395 3.310622 0.278167 -13.112739 5.375758 -1.136584 14.603874 -2.794800 1.093700 15.276400 9.924344 -12.570740 0.644329 -36.374415 -40.741342 5.945072 76.893161 -48.410045 -45.107797 -2.783513 -0.256937 7.169229 -42.002672 19.368615 -16.403600 -7.125000 0.000000 0.000000 -56.005900 42.905000 4.582400 -7.973863 14.090281 -1.898561 37.709766 49.190287 8.188145 -59.137199 45.383812 -26.594828 2.764354 0.438778 -1.917806 39.910907 -28.387679 -20.820700 7.125000 0.000000 0.000000 63.620900 -49.690700 -11.631400 
-0.103966 16.723108 -2.099613 -1.530739 -1.237731 6.855041 6.241736 -0.121553 -2.799171 -16.753337 -5.747184 -22.820550 3.345033 16.095067 44.083489 0.057303 4.306311 -14.083858 0.518500 -4.615000 -12.813700 -8.371925 -0.569633 -3.147318 19.865240 2.452696 -23.017096 -3.461549 -15.905772 44.905509 -0.928926 -1.823474 -15.170409 -0.454200 4.323400 -11.988400 1.952029 -1.096894 7.578442 0.979555 -1.233998 -4.991762 -2.815355 -0.673002 -6.690412 3.281674 0.303135 -13.073959 5.382222 -1.091299 14.582904 -2.781900 1.104900 15.236100 9.924064 -12.569607 0.659746 -36.403549 -40.699150 5.944900 76.901616 -48.407773 -45.118747 -2.780194 -0.256030 7.153971 -41.909134 19.402271 -16.372600 -7.125000 0.000000 0.000000 -55.992200 42.944300 4.490100 -7.969002 14.084766 -1.887194 37.772496 49.200443 8.298164 -59.164411 45.380850 -26.609634 2.766841 0.436691 -1.901978 39.972772 -28.408517 -20.875900 7.125000 0.000000 0.000000 63.682700 -49.695900 -11.667100 
-0.102844 16.722996 -2.101744 -1.569998 -1.247159 6.858443 6.240215 -0.123823 -2.799151 -16.715261 -5.796006 -22.801459 3.339671 16.089225 44.062366 0.039027 4.371903 -14.084082 0.519300 -4.618600 -12.823900 -8.374615 -0.567174 -3.146083 19.906019 2.523265 -23.002073 -3.450342 -15.905457 44.883126 -0.918198 -1.859948 -15.171398 -0.450800 4.307600 -11.943600 1.983506 -1.086409 7.568428 0.980783 -1.219225 -4.992148 -2.824807 -0.666342 -6.696899 3.307051 0.316315 -13.046845 5.376582 -1.081421 14.560040 -2.796600 1.110400 15.195000 9.927996 -12.564570 0.670125 -36.464087 -40.690887 6.000784 76.887830 -48.403434 -45.091401 -2.776681 -0.262435 7.142456 -41.765987 19.368977 -16.271200 -7.125000 0.000000 0.000000 -55.903800 42.943600 4.475300 -7.964254 14.075876 -1.874701 37.789539 49.178976 8.294108 -59.159727 45.386466 -26.608663 2.766694 0.435808 -1.884085 39.981828 -28.395253 -20.874500 7.125000 0.000000 0.000000 63.673800 -49.685700 -11.641300 
-0.100601 16.724006 -2.102641 -1.564313 -1.246529 6.851760 6.239615 -0.124083 -2.796974 -16.734051 -5.861518 -22.768125 3.331579 16.085232 44.042170 0.019486 4.453993 -14.121352 0.520500 -4.623900 -12.838800 -8.372991 -0.566832 -3.145001 19.892918 2.551793 -22.977953 -3.444730 -15.899328 44.863650 -0.914722 -1.871234 -15.167716 -0.446200 4.285700 -11.881900 1.979142 -1.084936 7.574287 0.979335 -1.216518 -4.993212 -2.831678 -0.665731 -6.702919 3.312663 0.317516 -13.051046 5.380202 -1.081330 14.538250 -2.794600 1.108700 15.170300 9.926896 -12.563757 0.669051 -36.478397 -40.693458 6.034917 76.895657 -48.399729 -45.095278 -2.777501 -0.264658 7.114573 -41.772360 19.360029 -16.269000 -7.125000 0.000000 0.000000 -55.899700 42.936600 4.490500 -7.964626 14.074088 -1.862222 37.818391 49.172910 8.295445 -59.157498 45.380542 -26.601276 2.767193 0.431031 -1.849575 39.847773 -28.426593 -20.794300 7.125000 0.000000 0.000000 63.616400 -49.723100 -11.700300 
